<?xml version="1.0" encoding="UTF-8"?>
<svg id="Object" xmlns="http://www.w3.org/2000/svg" viewBox="0 0 100 100">
  <defs>
    <style>
      .cls-1 {
        fill: #d30139;
      }

      .cls-1, .cls-2 {
        stroke-width: 0px;
      }

      .cls-2 {
        fill: #fff;
      }

      .cls-3 {
        fill: none;
        stroke: #d30139;
        stroke-miterlimit: 10;
        stroke-width: 4px;
      }
    </style>
  </defs>
  <g>
    <path class="cls-2" d="m45.34,90.3c-.42-.42-.79-.85-1.13-1.3-3.66.64-7.34.09-11.1.16-3.51.07-7.07.71-10.41-.72-1.96-.84-3.36-2.25-4.32-3.96-.91-.56-1.73-1.22-2.43-1.96,2.78,5.65,8.59,9.54,15.19,9.55,5.61,0,11.22,0,16.83,0-.96-.4-1.86-1-2.63-1.77Z"/>
    <path class="cls-1" d="m83.58,74.71s-.07,0-.11.01c-1.06.45-2.11.72-3.22.89l.25.3c-.46,5.14-4.22,9.95-9.75,11.03-.89.18-1.82.26-2.73.27-6.62.02-13.24.01-19.86.01s-13.29,0-19.93,0c-5.74,0-10.63-3.82-11.98-9.39-.81-3.34-.34-6.53,1.57-9.4,6.16-9.28,14.77-14.96,25.82-16.19,6.91-.77,13.15.03,18.71,2.36,1.13-1.29,2.41-2.43,3.87-3.32l-.1-.12c-.29-.14-.58-.28-.88-.41-2.12-.97-4.37-1.68-6.58-2.52,11.53-7.79,12.74-24.05,3.4-33.62-8.54-8.76-22.71-9.01-31.48-.11-4.43,4.49-6.6,9.98-6.32,16.28.36,7.99,4.19,14.02,10.97,18.32-.33.12-.57.22-.82.31-7.93,2.87-14.38,7.73-19.43,14.49-2.79,3.73-4.28,7.83-3.89,12.54.71,8.75,8.1,15.63,16.88,15.65,11.7.02,23.41.02,35.11,0,2.6,0,5.23.11,7.79-.24,8.89-1.2,14.85-9.33,14.52-17.62h0c-.56.22-1.16.4-1.81.5ZM29.13,30.09c-.01-9.65,7.63-17.32,17.17-17.29,9.52.04,17.13,7.68,17.12,17.19.06,9.01-7.36,17.39-17.73,17.09-9.11-.26-16.54-7.79-16.56-17Z"/>
  </g>
  <g>
    <g>
      <path class="cls-1" d="m70.05,70.63c-.3,0-.59-.11-.82-.34l-3.86-3.86c-.45-.45-.45-1.19,0-1.64.45-.45,1.18-.45,1.64,0l3.04,3.04,10.66-10.66c.45-.45,1.19-.45,1.64,0,.45.45.45,1.18,0,1.64l-11.48,11.48c-.23.23-.52.34-.82.34Z"/>
      <path class="cls-1" d="m70.05,71.07c-.43,0-.83-.17-1.13-.47l-3.86-3.86c-.62-.62-.62-1.63,0-2.25.6-.6,1.65-.6,2.25,0l2.73,2.73,10.36-10.36c.62-.62,1.63-.62,2.25,0,.62.62.62,1.63,0,2.25l-11.48,11.48c-.3.3-.7.47-1.13.47Zm-3.86-6.17c-.19,0-.38.08-.51.21-.28.28-.28.74,0,1.02l3.86,3.86c.27.27.75.27,1.02,0l11.48-11.48c.28-.28.28-.74,0-1.02-.28-.28-.74-.28-1.02,0l-10.66,10.66c-.17.17-.45.17-.61,0l-3.04-3.04c-.14-.14-.32-.21-.51-.21Z"/>
    </g>
    <circle class="cls-3" cx="73.27" cy="63.56" r="15.68"/>
  </g>
</svg>