<svg xmlns="http://www.w3.org/2000/svg" id="ingroup-icon" viewBox="0 0 2436 1125">
<style type="text/css">
	.st0{fill:#FFF;}
</style>
<path class="st0" d="M1133.4,702.3V572.4c0-9.4-7.6-17-17-17h0h-74.4h0c-9.4,0-17,7.6-17,17c0,9.4,7.6,17,17,17h0h53.8v31.8
	c0,12-2.1,22.4-6.4,31.2c-4.3,8.8-10.2,16.1-17.7,21.9c-7.5,5.8-16.2,10.2-26.2,13.1c-10,2.9-20.4,4.4-31.5,4.4
	c-15.3,0-29.1-2.5-41.3-7.6c-12.3-5.1-22.6-12.2-31-21.4c-8.4-9.2-14.9-20.4-19.5-33.4c-4.6-13.1-6.9-27.6-6.9-43.6v-52.1
	c0-16,2.3-30.4,6.9-43.3c4.6-12.9,11.1-24,19.5-33.2c8.4-9.2,18.5-16.4,30.1-21.4c11.6-5.1,24.5-7.6,38.6-7.6
	c20.2,0,37.6,4.9,52.2,14.7c9.9,6.6,18.1,15,24.6,25c3.3,4.9,8.9,8.1,15.2,8.1h0c0.9,0,1.8-0.1,2.7-0.2c8.8-1.3,15.6-8.8,15.6-18
	c0-3.5-1-6.8-2.7-9.5c-0.5-0.8-1-1.5-1.6-2.2c-9.1-12.9-20.4-23.9-33.8-32.7c-19.3-12.7-43.4-19.1-72.1-19.1
	c-20.5,0-39.2,3.7-56.1,11c-16.8,7.4-31.2,18-43.2,31.9C899,451,889.8,468.3,883.4,489c-6.4,20.7-9.7,44.3-9.7,71
	c0,27,3.3,50.8,9.9,71.4c6.6,20.7,15.7,38,27.3,51.9c11.6,13.9,25.6,24.5,42,31.7c16.4,7.2,34.4,10.8,54,10.8
	c24.5,0,44.5-4.9,60-14.8c15.5-9.9,25.2-22.3,29.2-37.1h1.4v28.5c0,9.9,8,17.9,17.9,17.9c9.9,0,17.9-8,17.9-17.9
	C1133.4,702.3,1133.4,702.3,1133.4,702.3"/>
<path class="st0" d="M1411.6,691.7L1353,578.8c21.1-4.9,37.1-14.9,48-30.1c10.9-15.2,16.3-34.5,16.3-58.1c0-29.4-7.9-51.9-23.7-67.5
	c-15.8-15.6-37.7-23.4-65.9-23.4h-108.4c-10.7,0-19.3,8.6-19.3,19.3V701v0c0,10.7,8.6,19.3,19.3,19.3c10.7,0,19.3-8.6,19.3-19.3v0
	V582.5h74.9l64,127.1c0.1,0.3,0.3,0.5,0.4,0.8c3.3,5.9,9.6,10,16.9,10c10.7,0,19.3-8.6,19.3-19.3c0-3.2-0.8-6.3-2.2-9L1411.6,691.7z
	 M1238.6,549.4V433.6h89.1c15.3,0,27.2,4,35.6,11.9c8.4,8,12.6,19.3,12.6,34v23.9c0,14.7-4.2,26-12.6,34c-8.4,8-20.3,11.9-35.6,11.9
	H1238.6z"/>
<path class="st0" d="M1726.5,488.7c-6.4-20.5-15.5-37.8-27.3-51.9c-11.8-14.1-26.1-24.7-43-31.9c-16.8-7.2-35.5-10.8-56-10.8
	c-20.8,0-39.6,3.6-56.3,10.8c-16.7,7.2-30.9,17.9-42.7,31.9c-11.8,14.1-20.9,31.4-27.3,51.9c-6.4,20.5-9.6,44.3-9.6,71.2
	c0,27,3.2,50.8,9.6,71.4c6.4,20.7,15.5,38,27.3,51.9c11.8,13.9,26,24.5,42.7,31.7c16.7,7.2,35.5,10.8,56.3,10.8
	c20.5,0,39.2-3.6,56-10.8c16.9-7.2,31.2-17.8,43-31.7c11.8-13.9,20.9-31.2,27.3-51.9c6.4-20.7,9.6-44.5,9.6-71.4
	C1736.2,533,1733,509.3,1726.5,488.7 M1694.8,586.7c0,16-2.3,30.4-6.9,43.3c-4.6,12.9-11.1,24-19.5,33.2
	c-8.4,9.2-18.5,16.3-30.1,21.2c-11.6,4.9-24.4,7.4-38.1,7.4c-13.8,0-26.5-2.5-38.1-7.4c-11.6-4.9-21.7-12-30.1-21.2
	c-8.4-9.2-14.9-20.3-19.5-33.2c-4.6-12.9-6.9-27.4-6.9-43.3v-53.5c0-16,2.3-30.4,6.9-43.3c4.6-12.9,11.1-24,19.5-33.2
	c8.4-9.2,18.5-16.3,30.1-21.2c11.6-4.9,24.3-7.4,38.1-7.4c13.8,0,26.5,2.5,38.1,7.4c11.6,4.9,21.7,12,30.1,21.2
	c8.4,9.2,14.9,20.3,19.5,33.2c4.6,12.9,6.9,27.4,6.9,43.3V586.7z"/>
<path class="st0" d="M2005.4,399.6c-10.7,0-19.3,8.6-19.3,19.3v0v0v179.5c0,30.7-5.7,53.9-17,69.7c-11.3,15.8-31.2,23.7-59.7,23.7
	c-28.5,0-48.4-7.9-59.7-23.7c-11.3-15.8-17-39-17-69.7V418.9v0v0c0-10.7-8.6-19.3-19.3-19.3c-10.7,0-19.3,8.6-19.3,19.3v170
	c0,23.3,1.9,43.5,5.7,60.7c3.8,17.2,10.2,31.4,19.1,42.7c8.9,11.3,20.6,19.7,35.2,25.3c14.5,5.5,32.5,8.3,54,8.3
	c21.4,0,39.6-2.8,54.5-8.3c14.8-5.5,26.9-13.9,36.1-25.3c9.2-11.3,15.9-25.6,20-42.7c4.1-17.2,6.2-37.4,6.2-60.7v-170v0v0
	C2024.7,408.2,2016.1,399.6,2005.4,399.6"/>
<path class="st0" d="M2292.8,424.2c-15.5-16.4-37.6-24.6-66.4-24.6H2118c-10.7,0-19.3,8.6-19.3,19.3V701c0,10.7,8.6,19.3,19.3,19.3
	c10.7,0,19.3-8.6,19.3-19.3v0v0V583.4h89.1c28.8,0,50.9-8.2,66.4-24.6c15.5-16.4,23.2-38.8,23.2-67.3
	C2316,463,2308.3,440.6,2292.8,424.2 M2274.6,503.4c0,14.7-4.2,26-12.6,34c-8.4,8-20.3,11.9-35.6,11.9h-89.1V433.6h89.1
	c15.3,0,27.2,4,35.6,11.9c8.4,8,12.6,19.3,12.6,34V503.4z"/>
<path class="st0" d="M439,656.1h-96.3V461.7c30.1,12.9,54.1,37.2,66.7,67.5h0c4.8,11.6,16.3,19.8,29.7,19.8
	c17.7,0,32.1-14.4,32.1-32.1c0-13.4-8.2-24.8-19.8-29.7v0c-30.8-12.8-55.5-37.4-68.2-68.2c-4.8-11.7-16.3-19.8-29.7-19.8h0H182.1
	c-17.7,0-32.1,14.4-32.1,32.1c0,17.7,14.4,32.1,32.1,32.1h96.3v194.4c-30.1-12.9-54.1-37.2-66.7-67.5h0
	c-4.8-11.6-16.3-19.8-29.7-19.8c-17.7,0-32.1,14.4-32.1,32.1c0,13.4,8.2,24.9,19.8,29.7v0c30.8,12.8,55.5,37.4,68.2,68.2
	c4.8,11.6,16.3,19.8,29.7,19.8c0,0,0.1,0,0.1,0h42.7h0h0H439c17.7,0,32.1-14.4,32.1-32.1C471.1,670.5,456.7,656.1,439,656.1"/>
<path class="st0" d="M524.6,484.8c-17.7,0-32.1,14.4-32.1,32.1v171.2c0,17.7,14.4,32.1,32.1,32.1c17.7,0,32.1-14.4,32.1-32.1V516.9
	C556.7,499.2,542.3,484.8,524.6,484.8"/>
<path class="st0" d="M666.2,529.2c4.8,11.6,16.3,19.8,29.7,19.8c17.7,0,32.1-14.4,32.1-32.1c0-13.4-8.2-24.9-19.8-29.7c0,0,0,0,0,0
	c-30.6-12.7-55.2-37.1-68-67.7c-4.7-11.9-16.3-20.3-29.9-20.3h-85.6c-17.7,0-32.1,14.4-32.1,32.1c0,17.7,14.4,32.1,32.1,32.1
	c3.5,0,7-0.6,10.2-1.6c10.3-3.4,21.3-5.2,32.7-5.3c11.5-0.1,24.5,2.7,32.7,5.3c30.2,9.6,54.7,33.9,65.3,65.3
	C665.6,527.8,665.9,528.5,666.2,529.2"/>
<path class="st0" d="M781.5,399.2c-17.7,0-32.1,14.4-32.1,32.1v196.2c-10-10.8-18.1-23.4-23.8-37.2h0c-4.8-11.6-16.3-19.8-29.7-19.8
	c-17.7,0-32.1,14.4-32.1,32.1c0,13.4,8.2,24.9,19.8,29.7v0c30.8,12.8,55.5,37.4,68.2,68.2c4.8,11.6,16.3,19.8,29.7,19.8
	c17.7,0,32.1-14.4,32.1-32.1V431.3C813.6,413.6,799.2,399.2,781.5,399.2"/>
</svg>