<?xml version="1.0" encoding="UTF-8"?>
<svg id="Object" xmlns="http://www.w3.org/2000/svg" viewBox="0 0 100 100">
  <defs>
    <style>
      .cls-1 {
        fill: #d30139;
        stroke-width: 0px;
      }
    </style>
  </defs>
  <path class="cls-1" d="m47.36,24.17c8.34,0,16.68-.03,25.02.02,2.1.01,4.24.1,6.29.52,4.25.86,7.06,4.1,7.52,8.53.22,2.14.26,4.3.26,6.45.01,8.45,0,16.9-.05,25.34-.01,2.12-.35,4.21-1.38,6.11-1.61,2.96-4.2,4.54-7.46,4.9-2.43.27-4.9.3-7.35.3-16.01.02-32.02.03-48.04,0-2.04,0-4.11-.09-6.1-.49-4.23-.86-7-3.86-7.53-8.13-.31-2.49-.35-5.03-.36-7.54-.04-7.28-.05-14.57,0-21.85.01-2.02.1-4.06.47-6.04.81-4.35,3.83-7.14,8.21-7.77,1.61-.23,3.26-.32,4.89-.33,8.53-.03,17.07-.01,25.6-.01Zm-.06,5.22h0c-8.55-.01-17.11-.03-25.66,0-1.54,0-3.1.13-4.62.4-1.72.3-2.84,1.44-3.21,3.15-.24,1.09-.39,2.21-.4,3.32-.04,8.73-.04,17.45-.04,26.18,0,1.25.06,2.5.17,3.74.25,2.96,1.55,4.34,4.48,4.75,1.02.14,2.06.22,3.09.22,17.13.02,34.26.03,51.39,0,1.67,0,3.36-.14,5.01-.4,1.74-.28,2.97-1.36,3.3-3.12.28-1.53.44-3.11.45-4.67.05-7.56.05-15.13.03-22.69,0-2.13-.06-4.27-.25-6.38-.22-2.49-1.58-3.86-4.02-4.25-1-.16-2.01-.24-3.02-.25-8.9-.02-17.8-.01-26.7-.01Z"/>
  <rect class="cls-1" x="18.7" y="34.33" width="7.07" height="32.6" rx="3.32" ry="3.32"/>
  <rect class="cls-1" x="28.71" y="36.78" width="7.07" height="27.52" rx="3.32" ry="3.32"/>
  <rect class="cls-1" x="84.54" y="36.22" width="7.47" height="28.07" rx="3.51" ry="3.51"/>
</svg>