<?xml version="1.0" encoding="UTF-8"?>
<svg id="Object" xmlns="http://www.w3.org/2000/svg" viewBox="0 0 100 100">
  <defs>
    <style>
      .cls-1 {
        fill: #d30139;
        stroke-width: 0px;
      }
    </style>
  </defs>
  <path class="cls-1" d="m10.25,47.8c2.53,0,4.96,0,7.38,0,.46,0,.92-.01,1.38,0,1.28.05,2.16.93,2.18,2.13.02,1.26-.86,2.21-2.17,2.23-2.62.04-5.24.02-7.85.02-.27,0-.54,0-.96,0,.58,8.76,3.54,16.54,9.15,23.22,7.37,8.79,16.89,13.46,28.43,14.37,0-1.56,0-3.01,0-4.46,0-1.4-.01-2.81,0-4.21.02-1.43.92-2.36,2.23-2.35,1.25.01,2.14.96,2.15,2.34.01,2.56,0,5.13,0,7.69,0,.29,0,.58,0,.87,19.7-.64,36.76-17.39,37.5-37.48-.29,0-.58,0-.86,0-2.59,0-5.18,0-7.77,0-.94,0-1.67-.41-2.07-1.29-.37-.81-.26-1.59.28-2.28.46-.6,1.1-.81,1.85-.81,2.54.01,5.07,0,7.61,0,.29,0,.59,0,1.05,0-.61-9.12-3.8-17.08-9.71-23.94-8.21-9.53-19.66-13.4-27.88-13.56,0,.32,0,.64,0,.95,0,2.56.01,5.13,0,7.69,0,1.17-.68,1.99-1.75,2.22-.94.2-1.95-.25-2.36-1.15-.18-.4-.26-.88-.26-1.33-.02-3.51-.02-7.02,0-10.53,0-1.51.9-2.4,2.44-2.38,11.01.14,20.73,3.78,28.98,11.05,8.33,7.34,13.2,16.61,14.64,27.61,1.1,8.41-.12,16.54-3.81,24.19-6.5,13.49-17.14,21.92-31.82,24.73-14.18,2.72-26.88-.94-37.72-10.48-8.12-7.16-12.94-16.27-14.3-27-1.72-13.55,2.07-25.5,11.17-35.73.41-.46.84-.92,1.28-1.35.98-.95,2.3-.98,3.18-.09.89.91.87,2.2-.09,3.18-4.14,4.22-7.24,9.1-9.24,14.66-1.23,3.42-1.98,6.94-2.23,10.57-.01.18,0,.37,0,.68Z"/>
  <path class="cls-1" d="m28.3,25.68c.3.2.97.5,1.46.99,6.24,6.2,12.45,12.43,18.67,18.65,1.05,1.05,2.12,2.08,3.14,3.16.75.8.79,1.98.17,2.83-.58.79-1.7,1.11-2.61.69-.31-.14-.59-.38-.83-.62-7.29-7.28-14.58-14.57-21.87-21.86-.76-.76-.95-1.64-.58-2.51.35-.81,1.16-1.34,2.45-1.33Z"/>
</svg>