<?xml version="1.0" encoding="UTF-8"?>
<svg id="Object" xmlns="http://www.w3.org/2000/svg" viewBox="0 0 100 100">
  <defs>
    <style>
      .cls-1 {
        fill: #d30139;
        stroke-width: 0px;
      }
    </style>
  </defs>
  <path class="cls-1" d="m50.02,17.33c11.81,0,23.63-.01,35.44,0,6.07,0,11.01,3.63,12.47,9.36.48,1.9.48,3.95.48,5.94.03,14.32.02,28.65,0,42.97,0,6.81-4.41,11.99-11.14,12.97-1.59.23-3.24.12-4.87.12-22.64,0-45.29,0-67.93,0-7.29,0-12.87-5.51-12.89-12.83-.04-12.87-.02-25.73,0-38.6,0-2.81-.07-5.63.1-8.43.37-6.09,5.59-11.27,11.68-11.43,6.29-.17,12.59-.07,18.89-.08,5.92,0,11.85,0,17.77,0h0Zm.03,5.06c-11.78,0-23.56.08-35.34-.04-4.43-.05-8.13,3.49-8.1,8.12.1,15.04.04,30.07.04,45.11,0,4.84,3.25,8.07,8.1,8.07,23.5,0,46.99-.03,70.49.03,4.49.01,8.19-3.46,8.16-8.19-.09-14.97-.1-29.94,0-44.91.03-4.52-3.48-8.29-8.22-8.23-11.71.14-23.43.05-35.14.05Z"/>
  <path class="cls-1" d="m59.33,45.48c.04,2.26-.91,3.38-2.39,3.44-1.48.06-2.54-.98-2.65-2.59-.18-2.57-2.04-4.3-4.52-4.21-2.28.09-4.1,2.03-4.07,4.35.02,2.39,1.87,4.16,4.4,4.24,4.63.13,8.31,3.23,9.17,7.71.81,4.23-1.52,8.54-5.64,10.3-.64.28-.93.56-.92,1.3.01,1.65-1.02,2.73-2.48,2.76-1.48.03-2.51-1.07-2.53-2.8,0-.6-.2-.86-.78-1.07-3.76-1.38-6.2-4.81-6.25-8.66-.02-1.69.95-2.86,2.43-2.92,1.55-.06,2.55.99,2.63,2.79.08,1.96,1.3,3.78,3.09,4.04,1.55.22,3.24.3,4.43-1.18,1.12-1.39,1.43-2.93.75-4.56-.7-1.68-2.07-2.59-3.89-2.63-2.36-.05-4.44-.76-6.24-2.3-5.26-4.5-3.87-13.17,2.57-15.69,1-.39,1.31-.86,1.27-1.9-.05-1.61,1.07-2.7,2.53-2.68,1.41.02,2.52,1.12,2.46,2.66-.05,1.14.32,1.65,1.38,2.16,3.34,1.59,5,4.4,5.24,7.44Z"/>
  <path class="cls-1" d="m25.19,30.3c-.42,5.55-4.87,10.02-10.28,10.19-1.59.05-2.8-.94-2.89-2.36-.1-1.51.95-2.59,2.63-2.7,3.05-.21,4.97-2.16,5.23-5.4.09-1.09.58-1.87,1.58-2.28.91-.38,1.88-.3,2.54.43.53.58.8,1.4,1.18,2.12Z"/>
  <path class="cls-1" d="m85.86,40.49c-5.44-.09-10.06-4.77-10.08-10.2,0-1.56.97-2.66,2.4-2.72,1.48-.07,2.55.98,2.66,2.59.2,3.07,2.18,5.06,5.23,5.27,1.65.11,2.66,1.14,2.59,2.62-.07,1.48-1.2,2.47-2.8,2.44Z"/>
  <path class="cls-1" d="m24.95,76.04c.06,1.5-.93,2.68-2.35,2.8-1.39.12-2.55-.92-2.7-2.43-.32-3.26-2.06-5-5.3-5.33-1.68-.17-2.7-1.27-2.56-2.77.14-1.47,1.4-2.4,3.05-2.27,5.54.45,9.67,4.64,9.86,9.99Z"/>
  <path class="cls-1" d="m75.8,75.92c.14-5.35,4.97-10.01,10.25-9.9,1.46.03,2.56,1.04,2.63,2.42.07,1.38-.92,2.47-2.38,2.64-3.57.41-4.99,1.83-5.46,5.46-.18,1.39-1.33,2.39-2.63,2.3-1.54-.1-2.45-1.2-2.4-2.92Z"/>
</svg>