<?xml version="1.0" encoding="UTF-8"?>
<svg id="Object" xmlns="http://www.w3.org/2000/svg" viewBox="0 0 100 100">
  <defs>
    <style>
      .cls-1 {
        fill: #d30139;
      }

      .cls-1, .cls-2 {
        stroke-width: 0px;
      }

      .cls-2 {
        fill: #fff;
      }
    </style>
  </defs>
  <path class="cls-1" d="m94.62,70.24c-4.2-7.3-10.37-12.56-18.01-16.06-2.12-.97-4.37-1.68-6.58-2.52,11.53-7.79,12.74-24.05,3.4-33.62-6.78-6.95-17.08-8.52-25.44-4.44,1.65.07,3.05,1.19,3.83,2.69,5.74.48,10.24,7.92,10.24,17.14.04,8.72-4.35,16.82-10.54,17.07-.1.22-.21.43-.33.63,1.32.99,2.09,2.66,2.11,4.31,11.08-.5,19.99,5.11,26.47,16.49,3.95,6.94.34,16.83-6.57,18.45-.75.18-1.52.26-2.29.27-2.75.01-5.49,0-8.24,0-.36.15-.76.27-1.2.35-5.35.88-10.2.17-15.52.1-5.02-.07-9.96,1.21-14.97,1.44-.35.04-.69.04-1.04.04,2.71,1.84,5.95,2.93,9.41,2.93,11.7.02,23.41.02,35.11,0,2.6,0,5.23.11,7.79-.24,11.58-1.57,18.2-14.89,12.37-25.02Z"/>
  <g>
    <g>
      <path class="cls-2" d="m83.55,70.24c-4.2-7.3-10.37-12.56-18.01-16.06-2.12-.97-4.37-1.68-6.58-2.52,11.53-7.79,12.74-24.05,3.4-33.62-6.7-6.87-16.83-8.48-25.13-4.58,3.93-.65,8.27-.75,11.48.28,1.87.6,2.92,1.92,3.3,3.41,6.82,2.28,11.7,8.68,11.69,16.29.05,7.03-4.47,13.64-11.36,16.09.17,2.04.35,4.06.5,6.09,10.68,1.07,19.44,6.58,26.06,16.33,4.72,6.94.41,16.83-7.85,18.45-.89.18-1.82.26-2.73.27-4.65.02-9.3.01-13.95,0-.27,1.36-.87,2.63-2.04,3.69-.54.49-1.13.87-1.74,1.15,4.26,0,8.53,0,12.79,0,2.6,0,5.23.11,7.79-.24,11.58-1.57,18.2-14.89,12.37-25.02Z"/>
      <path class="cls-2" d="m42.47,93.73c-.42-.42-.79-.85-1.13-1.3-3.66.64-7.34.09-11.1.16-3.51.07-7.07.71-10.41-.72-1.96-.84-3.36-2.25-4.32-3.96-.91-.56-1.73-1.22-2.43-1.96,2.78,5.65,8.59,9.54,15.19,9.55,5.61,0,11.22,0,16.83,0-.96-.4-1.86-1-2.63-1.77Z"/>
    </g>
    <path class="cls-1" d="m55.8,51.65c2.21.84,4.45,1.55,6.58,2.52,7.64,3.5,13.81,8.76,18.01,16.06,5.83,10.13-.79,23.46-12.37,25.02-2.56.35-5.19.23-7.79.24-11.7.02-23.41.02-35.11,0-8.77-.01-16.17-6.9-16.88-15.65-.38-4.71,1.1-8.8,3.89-12.54,5.05-6.76,11.49-11.61,19.43-14.49.25-.09.49-.19.82-.31-6.78-4.29-10.62-10.32-10.97-18.32-.28-6.3,1.89-11.79,6.32-16.28,8.77-8.9,22.93-8.65,31.48.11,9.34,9.58,8.13,25.84-3.4,33.62Zm-10.5,39.01c6.62,0,13.24.01,19.86-.01.91,0,1.84-.09,2.73-.27,8.25-1.62,12.56-11.51,7.85-18.45-8.38-12.33-20.17-17.9-34.96-16.25-11.05,1.23-19.66,6.91-25.82,16.19-1.9,2.87-2.37,6.06-1.57,9.4,1.35,5.57,6.24,9.38,11.98,9.39,6.64,0,13.29,0,19.93,0Zm15.24-57.23c.01-9.51-7.6-17.15-17.12-17.19-9.54-.04-17.18,7.63-17.17,17.29.01,9.21,7.44,16.74,16.56,17,10.36.29,17.79-8.08,17.73-17.09Z"/>
  </g>
</svg>