<?xml version="1.0" encoding="UTF-8"?>
<svg id="Object" xmlns="http://www.w3.org/2000/svg" viewBox="0 0 100 100">
  <defs>
    <style>
      .cls-1 {
        fill: #d30139;
        stroke: #d30139;
        stroke-miterlimit: 10;
        stroke-width: 2px;
      }
    </style>
  </defs>
  <g>
    <path class="cls-1" d="m64.04,24.42c-.39,0-.76-.2-.96-.57l-7.11-12.84c-.17-.31-.18-.67-.04-.99.15-.32.44-.55.78-.61l14.39-2.88c.6-.12,1.17.27,1.29.86s-.27,1.17-.86,1.29l-12.92,2.58,6.38,11.53c.29.53.1,1.2-.43,1.49-.17.09-.35.14-.53.14Z"/>
    <path class="cls-1" d="m64.04,24.83c-.55,0-1.05-.3-1.32-.78l-7.11-12.84c-.23-.42-.25-.93-.05-1.36.2-.43.6-.75,1.07-.85l14.39-2.88c.39-.08.8,0,1.13.22.33.22.56.56.64.96.16.81-.37,1.61-1.18,1.77l-12.37,2.47,6.11,11.04c.19.35.24.76.13,1.15-.11.39-.37.71-.72.9-.22.12-.47.19-.73.19Zm7.29-17.91s-.09,0-.14.01l-14.39,2.88c-.21.04-.39.19-.49.38-.09.2-.08.43.02.62l7.11,12.84c.18.32.61.45.93.27.16-.09.28-.23.33-.41.05-.18.03-.36-.06-.52l-6.38-11.53c-.06-.11-.07-.25-.01-.37.05-.12.16-.21.29-.23l12.92-2.58c.37-.07.61-.44.54-.81-.04-.18-.14-.33-.29-.44-.11-.08-.24-.11-.38-.11Z"/>
  </g>
  <g>
    <path class="cls-1" d="m29.16,92.67c-.51,0-.97-.36-1.07-.88-.12-.59.27-1.17.86-1.29l12.92-2.58-6.38-11.53c-.29-.53-.1-1.2.43-1.49.53-.29,1.2-.1,1.49.43l7.11,12.84c.17.31.18.67.04.99-.15.32-.44.55-.78.61l-14.39,2.88c-.07.01-.15.02-.22.02Z"/>
    <path class="cls-1" d="m29.16,93.08c-.72,0-1.34-.51-1.48-1.21-.08-.39,0-.8.22-1.13.22-.33.56-.56.96-.64l12.37-2.47-6.11-11.04c-.19-.35-.24-.76-.13-1.15.11-.39.37-.71.72-.9.72-.4,1.64-.14,2.05.59l7.11,12.84c.23.42.25.93.05,1.36-.2.43-.6.75-1.07.84l-14.39,2.88c-.1.02-.2.03-.3.03Zm7.28-17.91c-.11,0-.22.03-.33.09-.16.09-.28.23-.33.41-.05.18-.03.36.06.52l6.38,11.53c.06.11.07.25.01.37-.05.12-.16.21-.29.23l-12.92,2.58c-.18.04-.33.14-.43.29-.1.15-.14.33-.1.51.07.36.42.61.81.54l14.39-2.88c.21-.04.4-.18.49-.38.09-.2.08-.43-.02-.62l-7.11-12.84c-.13-.22-.36-.35-.6-.35Z"/>
  </g>
  <g>
    <path class="cls-1" d="m43.05,89.32c-.06,0-.13,0-.19-.02-7.89-1.41-15.12-5.11-20.9-10.69-16.01-15.46-16.46-41.06-1-57.07,5.93-6.14,13.51-10.18,21.9-11.68.6-.1,1.16.29,1.27.89s-.29,1.16-.89,1.27c-7.94,1.42-15.1,5.24-20.71,11.05-14.62,15.14-14.19,39.35.95,53.97,5.47,5.28,12.3,8.78,19.76,10.11.6.11.99.68.89,1.27-.1.53-.56.9-1.08.9Z"/>
    <path class="cls-1" d="m43.05,89.73c-.09,0-.18,0-.27-.02-7.97-1.42-15.27-5.16-21.11-10.8-16.17-15.61-16.63-41.47-1.01-57.65,5.99-6.21,13.64-10.29,22.13-11.8.83-.13,1.6.39,1.75,1.22.07.4-.02.8-.25,1.13-.23.33-.58.55-.97.62-7.85,1.41-14.94,5.18-20.49,10.93-14.46,14.98-14.04,38.93.94,53.39,5.41,5.22,12.17,8.68,19.55,10,.82.15,1.36.93,1.22,1.75-.13.72-.75,1.24-1.48,1.24Zm0-79.47s-.08,0-.12.01c-8.31,1.49-15.8,5.48-21.68,11.56-15.3,15.85-14.85,41.19,1,56.48,5.72,5.53,12.88,9.18,20.69,10.58.38.07.73-.19.79-.55.07-.37-.18-.73-.55-.79-7.54-1.35-14.45-4.88-19.98-10.22-15.3-14.77-15.73-39.24-.96-54.55,5.67-5.87,12.91-9.73,20.93-11.17.18-.03.34-.13.44-.28.1-.15.14-.33.11-.51-.06-.33-.34-.56-.68-.56Z"/>
  </g>
  <g>
    <path class="cls-1" d="m56.93,89.31c-.52,0-.98-.37-1.08-.9-.11-.6.29-1.16.89-1.27,7.94-1.42,15.1-5.24,20.71-11.05,7.08-7.33,10.88-16.99,10.7-27.18-.18-10.19-4.32-19.71-11.65-26.79-5.47-5.28-12.3-8.78-19.76-10.11-.6-.11-.99-.68-.89-1.27.11-.6.67-.99,1.27-.89,7.89,1.41,15.12,5.1,20.9,10.69,7.76,7.49,12.13,17.55,12.32,28.32.19,10.78-3.83,20.98-11.32,28.74-5.93,6.14-13.5,10.18-21.9,11.68-.07.01-.13.02-.19.02Z"/>
    <path class="cls-1" d="m56.93,89.72c-.73,0-1.35-.52-1.48-1.24-.07-.4.02-.8.25-1.13.23-.33.58-.55.97-.62,7.86-1.41,14.94-5.18,20.49-10.93,7-7.25,10.76-16.8,10.59-26.89-.18-10.08-4.27-19.49-11.53-26.5-5.41-5.22-12.17-8.68-19.55-10-.82-.15-1.36-.93-1.22-1.75.07-.4.29-.74.62-.97.33-.23.73-.31,1.13-.24,7.97,1.42,15.27,5.16,21.11,10.8,7.83,7.56,12.25,17.73,12.44,28.61.19,10.89-3.87,21.2-11.43,29.03-5.99,6.21-13.64,10.29-22.13,11.8-.09.02-.18.02-.27.02Zm0-79.47c-.14,0-.27.04-.39.12-.15.1-.25.26-.28.44-.03.18,0,.36.11.51s.26.25.44.28c7.54,1.35,14.45,4.88,19.98,10.22,7.41,7.16,11.59,16.77,11.78,27.08.18,10.3-3.66,20.06-10.82,27.47-5.67,5.87-12.91,9.73-20.93,11.17-.18.03-.34.13-.44.28-.1.15-.14.33-.11.51.07.37.41.63.79.55,8.31-1.49,15.81-5.48,21.68-11.57,7.41-7.68,11.39-17.78,11.2-28.45-.19-10.67-4.52-20.63-12.19-28.04-5.72-5.53-12.88-9.19-20.69-10.58-.04,0-.08-.01-.12-.01Z"/>
  </g>
</svg>