<?xml version="1.0" encoding="UTF-8"?>
<svg id="Object" xmlns="http://www.w3.org/2000/svg" viewBox="0 0 100 100">
  <defs>
    <style>
      .cls-1 {
        stroke-width: 0px;
      }

      .cls-1, .cls-2 {
        fill: #d30139;
      }

      .cls-2 {
        stroke: #d30139;
        stroke-miterlimit: 10;
      }
    </style>
  </defs>
  <g>
    <path class="cls-2" d="m30.5,71.1c-.4-.02-.79-.26-1.02-.76-.22-.49-.11-1.03.29-1.43,1.13-1.14,2.27-2.27,3.41-3.41,5.39-5.39,10.77-10.77,16.16-16.16.25-.25.51-.51.76-.76.57-.56,1.35-.58,1.87-.05.51.52.48,1.29-.07,1.84-4.4,4.4-8.8,8.8-13.19,13.2-2.37,2.37-4.73,4.73-7.09,7.1-.27.27-.58.45-1.12.44Z"/>
    <path class="cls-2" d="m47.77,72.03c-2.8.01-5.09-2.27-5.1-5.11-.01-2.77,2.26-5.05,5.03-5.06,2.86-.01,5.12,2.21,5.14,5.04.02,2.82-2.25,5.12-5.07,5.13Zm-2.56-5.11c-.01,1.4,1.11,2.55,2.5,2.57,1.42.02,2.6-1.13,2.6-2.54,0-1.39-1.13-2.55-2.52-2.56-1.44-.02-2.58,1.1-2.59,2.54Z"/>
    <path class="cls-2" d="m34.98,56.75c-2.92-.06-5.11-2.36-5.04-5.3.06-2.75,2.42-4.93,5.25-4.86,2.75.07,4.99,2.41,4.92,5.15-.07,2.82-2.38,5.07-5.13,5.01Zm2.59-5.09c0-1.44-1.15-2.56-2.58-2.55-1.4.01-2.54,1.17-2.53,2.58.01,1.4,1.18,2.54,2.58,2.53,1.39,0,2.53-1.17,2.52-2.55Z"/>
  </g>
  <path class="cls-1" d="m79.38,32.88c3.92-.32,6.76-2.1,8.41-5.57,2.41-5.09,2.83-10.19-.31-15.15-.63-.99-1.59-1.78-2.49-2.56-1.14-.99-1.49-2.28-.76-3.33.8-1.15,2.23-1.34,3.5-.42,3.73,2.72,5.76,6.48,6.36,10.98.72,5.41-.48,10.4-3.61,14.9-2.48,3.57-6.07,5.17-10.24,5.75-.25.03-.49.08-.87.14,0,.89,0,1.76,0,2.63,0,3.35,0,6.69,0,10.04,0,3.85-1.36,7.14-4.09,9.86-6.55,6.53-13.11,13.05-19.68,19.57-3.61,3.58-7.12,7.26-10.87,10.69-5.17,4.73-13.03,4.58-18.04-.29-5.91-5.74-11.75-11.55-17.52-17.44-4.67-4.77-4.61-13.15.11-17.89,9.47-9.51,18.99-18.96,28.52-28.41,1.47-1.46,3.03-2.86,4.71-4.06,1.84-1.3,4.04-1.73,6.29-1.8,6.72-.22,13.44-.45,20.16-.64,6.19-.17,10.42,3.98,10.41,10.17,0,.91,0,1.82,0,2.81Zm-4.65.21c0-1.13,0-2.16,0-3.2,0-3.43-2.21-5.49-5.65-5.37-6.78.24-13.57.44-20.35.66-2.1.07-3.96.8-5.45,2.29-10.11,10.03-20.21,20.06-30.29,30.12-3.58,3.57-3.5,8.97.1,12.53,5.51,5.47,11.01,10.96,16.51,16.44,3.48,3.47,8.95,3.54,12.42.09,10-9.91,19.99-19.84,29.98-29.75,1.82-1.8,2.74-3.96,2.73-6.53-.01-3.57,0-7.14,0-10.7,0-1.86,0-1.86-1.81-2.03-.41-.04-.82-.07-1.22-.14-.52-.09-.85.08-1.18.52-1.22,1.66-2.93,2.47-4.97,2.48-2.98.01-5.57-2.21-6.05-5.13-.48-2.93,1.17-5.76,3.94-6.79,2.82-1.04,6.12,0,7.41,2.68.71,1.49,1.63,1.86,3.04,1.77.22-.01.44.02.84.05Zm-8.94-1.71c-4.24.67-4.37,6.13-.26,5.95-.24-.77-.9-1.85.26-5.95Z"/>
</svg>