<?xml version="1.0" encoding="UTF-8"?>
<svg id="Object" xmlns="http://www.w3.org/2000/svg" viewBox="0 0 100 100">
  <defs>
    <style>
      .cls-1 {
        fill: #d30139;
        stroke-width: 0px;
      }
    </style>
  </defs>
  <path class="cls-1" d="m90.69,33.07c-.11,17.18-5.83,32.25-17.43,44.99-6.09,6.69-13.32,11.83-21.54,15.6-1.13.52-2.13.55-3.25.01-18.47-8.72-30.72-22.84-36.59-42.4-2.56-8.54-3.12-17.29-2.11-26.14.17-1.52,1-2.41,2.42-2.42,7.74-.07,14.7-2.65,21.22-6.58,5.49-3.3,10.38-7.35,14.68-12.09,1.22-1.35,2.69-1.35,3.92-.02,6.21,6.69,13.32,12.14,21.78,15.69,4.39,1.84,8.96,2.91,13.74,2.98,1.82.03,2.61.71,2.83,2.5.12,1.01.27,2.01.3,3.02.05,1.61.01,3.23.01,4.84ZM14.33,27.47c-.42,4.49-.34,8.95.23,13.38.97,7.51,3.21,14.63,6.81,21.29,6.46,11.94,15.83,20.83,28.07,26.69.36.17.94.15,1.3-.02,1.48-.7,2.96-1.45,4.38-2.27,11.04-6.43,19.37-15.37,24.91-26.89,3.95-8.2,5.92-16.86,6.05-25.95.03-2.08-.12-4.15-.18-6.23-14.57-1.31-25.78-8.75-35.82-18.47-10.08,9.73-21.29,17.19-35.75,18.46Z"/>
  <path class="cls-1" d="m43.29,58.93c2.46-2.48,4.68-4.74,6.92-6.97,6.14-6.13,12.29-12.25,18.44-18.37,1.11-1.11,2.57-1.18,3.54-.21.97.96.9,2.46-.18,3.54-8.91,8.91-17.83,17.82-26.75,26.73-1.17,1.16-2.51,1.18-3.68,0-4.49-4.47-8.97-8.95-13.44-13.43-1.13-1.13-1.18-2.53-.19-3.54.99-1.01,2.41-.96,3.54.17,3.72,3.71,7.44,7.43,11.15,11.16.22.22.37.52.64.92Z"/>
</svg>